<mxfile host="Electron" agent="Mozilla/5.0 (Windows NT 10.0; Win64; x64) AppleWebKit/537.36 (KHTML, like Gecko) draw.io/24.7.17 Chrome/128.0.6613.36 Electron/32.0.1 Safari/537.36" version="24.7.17">
  <diagram name="Página-1" id="09XYHj_t5P4I8IXs1cfQ">
    <mxGraphModel dx="3006" dy="1023" grid="1" gridSize="10" guides="1" tooltips="1" connect="1" arrows="1" fold="1" page="1" pageScale="1" pageWidth="1169" pageHeight="827" math="0" shadow="0">
      <root>
        <mxCell id="0" />
        <mxCell id="1" parent="0" />
        <mxCell id="0AtwTI1klRxnO4YtGvaz-6" style="edgeStyle=orthogonalEdgeStyle;rounded=0;orthogonalLoop=1;jettySize=auto;html=1;entryX=0;entryY=0.5;entryDx=0;entryDy=0;" edge="1" parent="1" source="w5LnOviL8SpPW8NTDGUm-1" target="w5LnOviL8SpPW8NTDGUm-4">
          <mxGeometry relative="1" as="geometry" />
        </mxCell>
        <mxCell id="w5LnOviL8SpPW8NTDGUm-1" value="&lt;font style=&quot;font-size: 10px;&quot;&gt;INTERFACE INICIAL&lt;/font&gt;" style="shape=note;whiteSpace=wrap;html=1;backgroundOutline=1;darkOpacity=0.05;" parent="1" vertex="1">
          <mxGeometry x="-260" y="15" width="80" height="100" as="geometry" />
        </mxCell>
        <mxCell id="w5LnOviL8SpPW8NTDGUm-2" value="&lt;font style=&quot;font-size: 10px;&quot;&gt;CONTROLE DE PROPOSTAS&lt;/font&gt;" style="shape=note;whiteSpace=wrap;html=1;backgroundOutline=1;darkOpacity=0.05;" parent="1" vertex="1">
          <mxGeometry x="-329.5" y="707" width="80" height="100" as="geometry" />
        </mxCell>
        <mxCell id="0AtwTI1klRxnO4YtGvaz-25" style="edgeStyle=orthogonalEdgeStyle;rounded=0;orthogonalLoop=1;jettySize=auto;html=1;entryX=0.5;entryY=0;entryDx=0;entryDy=0;fillColor=#6a00ff;strokeColor=#3700CC;flowAnimation=1;" edge="1" parent="1" source="w5LnOviL8SpPW8NTDGUm-3" target="w5LnOviL8SpPW8NTDGUm-78">
          <mxGeometry relative="1" as="geometry">
            <Array as="points">
              <mxPoint x="-585" y="827" />
              <mxPoint y="827" />
            </Array>
          </mxGeometry>
        </mxCell>
        <mxCell id="w5LnOviL8SpPW8NTDGUm-3" value="&lt;font style=&quot;font-size: 10px;&quot;&gt;LAYOUT ORÇAMENTO&lt;/font&gt;" style="shape=note;whiteSpace=wrap;html=1;backgroundOutline=1;darkOpacity=0.05;" parent="1" vertex="1">
          <mxGeometry x="-625" y="707" width="80" height="100" as="geometry" />
        </mxCell>
        <mxCell id="w5LnOviL8SpPW8NTDGUm-43" style="edgeStyle=orthogonalEdgeStyle;rounded=0;orthogonalLoop=1;jettySize=auto;html=1;entryX=0.5;entryY=0;entryDx=0;entryDy=0;" parent="1" source="w5LnOviL8SpPW8NTDGUm-4" target="w5LnOviL8SpPW8NTDGUm-30" edge="1">
          <mxGeometry relative="1" as="geometry" />
        </mxCell>
        <mxCell id="w5LnOviL8SpPW8NTDGUm-4" value="&lt;b&gt;&lt;font style=&quot;font-size: 16px;&quot;&gt;DEAL FORGE&lt;/font&gt;&lt;/b&gt;" style="rounded=0;whiteSpace=wrap;html=1;align=center;" parent="1" vertex="1">
          <mxGeometry x="-78.25000000000004" y="40" width="155" height="50" as="geometry" />
        </mxCell>
        <mxCell id="w5LnOviL8SpPW8NTDGUm-5" value="&lt;ul style=&quot;text-align: left;&quot;&gt;&lt;li&gt;EMISSÃO DE ORÇAMENTOS:&lt;/li&gt;&lt;/ul&gt;&lt;ul style=&quot;text-align: left;&quot;&gt;&lt;ul&gt;&lt;li&gt;CRIA PROPOSTAS EM PDF&lt;/li&gt;&lt;li&gt;LANÇA ORÇAMENTO CRIADO PARA CONTROLE DE PROPOSTAS&lt;/li&gt;&lt;/ul&gt;&lt;/ul&gt;" style="rounded=1;whiteSpace=wrap;html=1;fillColor=#6a00ff;fontColor=#ffffff;strokeColor=#3700CC;" parent="1" vertex="1">
          <mxGeometry x="-707" y="477" width="252.5" height="120" as="geometry" />
        </mxCell>
        <mxCell id="w5LnOviL8SpPW8NTDGUm-6" value="&lt;ul style=&quot;text-align: left;&quot;&gt;&lt;li&gt;GERENCIAMENTO DE ORÇAMENTOS:&lt;/li&gt;&lt;/ul&gt;&lt;ul style=&quot;text-align: left;&quot;&gt;&lt;ul&gt;&lt;li&gt;ATUALIZA STATUS DA PROPOSTA&lt;/li&gt;&lt;li&gt;EXIBE PROPOSTAS&lt;/li&gt;&lt;/ul&gt;&lt;/ul&gt;" style="rounded=1;whiteSpace=wrap;html=1;fillColor=#1ba1e2;fontColor=#ffffff;strokeColor=#006EAF;" parent="1" vertex="1">
          <mxGeometry x="-415.75000000000006" y="477" width="252.5" height="120" as="geometry" />
        </mxCell>
        <mxCell id="w5LnOviL8SpPW8NTDGUm-7" value="&lt;ul style=&quot;text-align: left;&quot;&gt;&lt;li&gt;GERENCIAMENTO DE CLIENTES:&lt;/li&gt;&lt;/ul&gt;&lt;ul style=&quot;text-align: left;&quot;&gt;&lt;ul&gt;&lt;li&gt;ADIÇÃO DE CLIENTES NOVOS&lt;/li&gt;&lt;li&gt;REMOÇÃO DE CLIENTES&lt;/li&gt;&lt;li&gt;ALTERAÇÃO DE DADOS DE CLIENTES&lt;/li&gt;&lt;li&gt;EXIBE CLIENTES&lt;/li&gt;&lt;/ul&gt;&lt;/ul&gt;" style="rounded=1;whiteSpace=wrap;html=1;fillColor=#e51400;fontColor=#ffffff;strokeColor=#B20000;" parent="1" vertex="1">
          <mxGeometry x="153.24999999999994" y="477" width="252.5" height="120" as="geometry" />
        </mxCell>
        <mxCell id="w5LnOviL8SpPW8NTDGUm-88" style="edgeStyle=orthogonalEdgeStyle;rounded=0;orthogonalLoop=1;jettySize=auto;html=1;entryX=0.5;entryY=0;entryDx=0;entryDy=0;" parent="1" source="w5LnOviL8SpPW8NTDGUm-11" target="w5LnOviL8SpPW8NTDGUm-35" edge="1">
          <mxGeometry relative="1" as="geometry" />
        </mxCell>
        <mxCell id="w5LnOviL8SpPW8NTDGUm-11" value="&lt;ul&gt;&lt;li&gt;VALIDAÇÃO DE USUÁRIO&lt;/li&gt;&lt;/ul&gt;&lt;ul&gt;&lt;ul&gt;&lt;li&gt;VALIDAÇÃO DE USUÁRIO E SENHA&lt;/li&gt;&lt;/ul&gt;&lt;/ul&gt;" style="rounded=1;whiteSpace=wrap;html=1;align=left;" parent="1" vertex="1">
          <mxGeometry x="-153.25000000000006" y="210" width="306" height="70" as="geometry" />
        </mxCell>
        <mxCell id="w5LnOviL8SpPW8NTDGUm-23" value="&lt;div style=&quot;&quot;&gt;&lt;span style=&quot;background-color: initial;&quot;&gt;&lt;font style=&quot;font-size: 10px;&quot;&gt;DATABASE PRODUTOS&lt;/font&gt;&lt;/span&gt;&lt;/div&gt;" style="shape=note;whiteSpace=wrap;html=1;backgroundOutline=1;darkOpacity=0.05;align=center;" parent="1" vertex="1">
          <mxGeometry x="-40.25" y="707" width="80" height="100" as="geometry" />
        </mxCell>
        <mxCell id="0AtwTI1klRxnO4YtGvaz-13" style="edgeStyle=orthogonalEdgeStyle;rounded=0;orthogonalLoop=1;jettySize=auto;html=1;entryX=1;entryY=0.5;entryDx=0;entryDy=0;fillColor=#e3c800;strokeColor=#B09500;flowAnimation=1;" edge="1" parent="1" source="w5LnOviL8SpPW8NTDGUm-24" target="w5LnOviL8SpPW8NTDGUm-35">
          <mxGeometry relative="1" as="geometry">
            <Array as="points">
              <mxPoint x="720" y="730" />
              <mxPoint x="720" y="325" />
            </Array>
          </mxGeometry>
        </mxCell>
        <mxCell id="w5LnOviL8SpPW8NTDGUm-24" value="&lt;div style=&quot;&quot;&gt;&lt;span style=&quot;background-color: initial;&quot;&gt;&lt;font style=&quot;font-size: 10px;&quot;&gt;DATABASE USUÁRIOS&lt;/font&gt;&lt;/span&gt;&lt;/div&gt;" style="shape=note;whiteSpace=wrap;html=1;backgroundOutline=1;darkOpacity=0.05;align=center;" parent="1" vertex="1">
          <mxGeometry x="531.7" y="707" width="80" height="100" as="geometry" />
        </mxCell>
        <mxCell id="w5LnOviL8SpPW8NTDGUm-44" style="edgeStyle=orthogonalEdgeStyle;rounded=0;orthogonalLoop=1;jettySize=auto;html=1;entryX=0.5;entryY=0;entryDx=0;entryDy=0;" parent="1" source="w5LnOviL8SpPW8NTDGUm-30" target="w5LnOviL8SpPW8NTDGUm-11" edge="1">
          <mxGeometry relative="1" as="geometry" />
        </mxCell>
        <mxCell id="w5LnOviL8SpPW8NTDGUm-30" value="LOGIN INTERFACE" style="shape=process;whiteSpace=wrap;html=1;backgroundOutline=1;" parent="1" vertex="1">
          <mxGeometry x="-60.25000000000004" y="120" width="120" height="60" as="geometry" />
        </mxCell>
        <mxCell id="w5LnOviL8SpPW8NTDGUm-48" style="edgeStyle=orthogonalEdgeStyle;rounded=0;orthogonalLoop=1;jettySize=auto;html=1;" parent="1" target="w5LnOviL8SpPW8NTDGUm-40" edge="1">
          <mxGeometry relative="1" as="geometry">
            <Array as="points">
              <mxPoint x="-143.00000000000006" y="350" />
              <mxPoint x="-301.00000000000006" y="350" />
            </Array>
            <mxPoint x="2.999999999999954" y="350" as="sourcePoint" />
          </mxGeometry>
        </mxCell>
        <mxCell id="w5LnOviL8SpPW8NTDGUm-49" style="edgeStyle=orthogonalEdgeStyle;rounded=0;orthogonalLoop=1;jettySize=auto;html=1;entryX=0.5;entryY=0;entryDx=0;entryDy=0;" parent="1" source="w5LnOviL8SpPW8NTDGUm-35" target="w5LnOviL8SpPW8NTDGUm-42" edge="1">
          <mxGeometry relative="1" as="geometry">
            <Array as="points">
              <mxPoint x="-4.618527782440651e-14" y="350" />
              <mxPoint x="279.99999999999994" y="350" />
            </Array>
          </mxGeometry>
        </mxCell>
        <mxCell id="w5LnOviL8SpPW8NTDGUm-50" style="edgeStyle=orthogonalEdgeStyle;rounded=0;orthogonalLoop=1;jettySize=auto;html=1;entryX=0.5;entryY=0;entryDx=0;entryDy=0;exitX=0.5;exitY=1;exitDx=0;exitDy=0;" parent="1" source="w5LnOviL8SpPW8NTDGUm-35" target="w5LnOviL8SpPW8NTDGUm-46" edge="1">
          <mxGeometry relative="1" as="geometry">
            <Array as="points">
              <mxPoint x="-4.618527782440651e-14" y="350" />
              <mxPoint x="572" y="350" />
            </Array>
            <mxPoint x="-6.999999999999819" y="340" as="sourcePoint" />
          </mxGeometry>
        </mxCell>
        <mxCell id="0AtwTI1klRxnO4YtGvaz-2" style="edgeStyle=orthogonalEdgeStyle;rounded=0;orthogonalLoop=1;jettySize=auto;html=1;entryX=0.5;entryY=0;entryDx=0;entryDy=0;exitX=0.5;exitY=1;exitDx=0;exitDy=0;" edge="1" parent="1" source="w5LnOviL8SpPW8NTDGUm-35" target="w5LnOviL8SpPW8NTDGUm-41">
          <mxGeometry relative="1" as="geometry">
            <mxPoint x="9.550000000000136" y="340" as="sourcePoint" />
            <Array as="points">
              <mxPoint x="-4.618527782440651e-14" y="350" />
              <mxPoint x="-581" y="350" />
            </Array>
          </mxGeometry>
        </mxCell>
        <mxCell id="0AtwTI1klRxnO4YtGvaz-5" style="edgeStyle=orthogonalEdgeStyle;rounded=0;orthogonalLoop=1;jettySize=auto;html=1;entryX=0.5;entryY=0;entryDx=0;entryDy=0;" edge="1" parent="1" source="w5LnOviL8SpPW8NTDGUm-35" target="0AtwTI1klRxnO4YtGvaz-3">
          <mxGeometry relative="1" as="geometry" />
        </mxCell>
        <mxCell id="w5LnOviL8SpPW8NTDGUm-35" value="INTERFACE HOME" style="shape=process;whiteSpace=wrap;html=1;backgroundOutline=1;" parent="1" vertex="1">
          <mxGeometry x="-97.75000000000004" y="310" width="195" height="30" as="geometry" />
        </mxCell>
        <mxCell id="0AtwTI1klRxnO4YtGvaz-4" style="edgeStyle=orthogonalEdgeStyle;rounded=0;orthogonalLoop=1;jettySize=auto;html=1;entryX=0.5;entryY=0;entryDx=0;entryDy=0;" edge="1" parent="1" source="w5LnOviL8SpPW8NTDGUm-40" target="w5LnOviL8SpPW8NTDGUm-6">
          <mxGeometry relative="1" as="geometry" />
        </mxCell>
        <mxCell id="w5LnOviL8SpPW8NTDGUm-40" value="INTERFACE GERENCIAR ORÇAMENTOS" style="shape=process;whiteSpace=wrap;html=1;backgroundOutline=1;" parent="1" vertex="1">
          <mxGeometry x="-387.00000000000006" y="370" width="195" height="60" as="geometry" />
        </mxCell>
        <mxCell id="w5LnOviL8SpPW8NTDGUm-54" style="edgeStyle=orthogonalEdgeStyle;rounded=0;orthogonalLoop=1;jettySize=auto;html=1;entryX=0.5;entryY=0;entryDx=0;entryDy=0;" parent="1" source="w5LnOviL8SpPW8NTDGUm-41" target="w5LnOviL8SpPW8NTDGUm-5" edge="1">
          <mxGeometry relative="1" as="geometry" />
        </mxCell>
        <mxCell id="w5LnOviL8SpPW8NTDGUm-41" value="INTERFACE EMITIR ORÇAMENTOS" style="shape=process;whiteSpace=wrap;html=1;backgroundOutline=1;" parent="1" vertex="1">
          <mxGeometry x="-678.25" y="370" width="195" height="60" as="geometry" />
        </mxCell>
        <mxCell id="w5LnOviL8SpPW8NTDGUm-55" style="edgeStyle=orthogonalEdgeStyle;rounded=0;orthogonalLoop=1;jettySize=auto;html=1;entryX=0.5;entryY=0;entryDx=0;entryDy=0;" parent="1" source="w5LnOviL8SpPW8NTDGUm-42" target="w5LnOviL8SpPW8NTDGUm-7" edge="1">
          <mxGeometry relative="1" as="geometry" />
        </mxCell>
        <mxCell id="w5LnOviL8SpPW8NTDGUm-42" value="INTERFACE GERENCIAR CLIENTES" style="shape=process;whiteSpace=wrap;html=1;backgroundOutline=1;" parent="1" vertex="1">
          <mxGeometry x="181.99999999999994" y="370" width="195" height="60" as="geometry" />
        </mxCell>
        <mxCell id="w5LnOviL8SpPW8NTDGUm-57" style="edgeStyle=orthogonalEdgeStyle;rounded=0;orthogonalLoop=1;jettySize=auto;html=1;entryX=0.5;entryY=0;entryDx=0;entryDy=0;" parent="1" source="w5LnOviL8SpPW8NTDGUm-46" target="w5LnOviL8SpPW8NTDGUm-53" edge="1">
          <mxGeometry relative="1" as="geometry" />
        </mxCell>
        <mxCell id="w5LnOviL8SpPW8NTDGUm-46" value="INTERFACE GERENCIAR USUÁRIOS" style="shape=process;whiteSpace=wrap;html=1;backgroundOutline=1;" parent="1" vertex="1">
          <mxGeometry x="474.2" y="370" width="195" height="60" as="geometry" />
        </mxCell>
        <mxCell id="w5LnOviL8SpPW8NTDGUm-53" value="&lt;ul&gt;&lt;li&gt;GERENCIAMENTO DE USUÁRIOS&lt;/li&gt;&lt;/ul&gt;&lt;ul&gt;&lt;ul&gt;&lt;li&gt;VALIDAÇÃO DE LOGIN E SENHA&lt;/li&gt;&lt;li&gt;GERENCIAMENTO DE USUÁRIOS&lt;/li&gt;&lt;/ul&gt;&lt;/ul&gt;" style="rounded=1;whiteSpace=wrap;html=1;align=left;fillColor=#6d8764;fontColor=#ffffff;strokeColor=#3A5431;" parent="1" vertex="1">
          <mxGeometry x="445.45" y="477" width="252.5" height="120" as="geometry" />
        </mxCell>
        <mxCell id="w5LnOviL8SpPW8NTDGUm-65" value="&lt;div style=&quot;&quot;&gt;&lt;span style=&quot;background-color: initial;&quot;&gt;&lt;font style=&quot;font-size: 10px;&quot;&gt;DATABASE CLIENTES&lt;/font&gt;&lt;/span&gt;&lt;/div&gt;" style="shape=note;whiteSpace=wrap;html=1;backgroundOutline=1;darkOpacity=0.05;align=center;" parent="1" vertex="1">
          <mxGeometry x="239.5" y="707" width="80" height="100" as="geometry" />
        </mxCell>
        <mxCell id="w5LnOviL8SpPW8NTDGUm-78" value="ORÇAMENTO PDF" style="shape=document;whiteSpace=wrap;html=1;boundedLbl=1;" parent="1" vertex="1">
          <mxGeometry x="-60.25" y="897" width="120" height="53" as="geometry" />
        </mxCell>
        <mxCell id="0AtwTI1klRxnO4YtGvaz-1" value="&lt;ul style=&quot;text-align: left;&quot;&gt;&lt;li&gt;GERENCIAMENTO DE PRODUTOS&lt;/li&gt;&lt;/ul&gt;&lt;ul style=&quot;text-align: left;&quot;&gt;&lt;ul&gt;&lt;li&gt;ADIÇÃO DE PRODUTOS NOVOS&lt;/li&gt;&lt;li&gt;REMOÇÃO DE PRODUTOS&lt;/li&gt;&lt;li&gt;ALTERAÇÃO DE DADOS DE PRODUTOS&lt;/li&gt;&lt;li&gt;EXIBE PRODUTOS&lt;/li&gt;&lt;/ul&gt;&lt;/ul&gt;" style="rounded=1;whiteSpace=wrap;html=1;fillColor=#d80073;fontColor=#ffffff;strokeColor=#A50040;" vertex="1" parent="1">
          <mxGeometry x="-126.50000000000006" y="477" width="252.5" height="120" as="geometry" />
        </mxCell>
        <mxCell id="0AtwTI1klRxnO4YtGvaz-27" style="edgeStyle=orthogonalEdgeStyle;rounded=0;orthogonalLoop=1;jettySize=auto;html=1;entryX=0.5;entryY=0;entryDx=0;entryDy=0;" edge="1" parent="1" source="0AtwTI1klRxnO4YtGvaz-3" target="0AtwTI1klRxnO4YtGvaz-1">
          <mxGeometry relative="1" as="geometry" />
        </mxCell>
        <mxCell id="0AtwTI1klRxnO4YtGvaz-3" value="INTERFACE GERENCIAR PRODUTOS" style="shape=process;whiteSpace=wrap;html=1;backgroundOutline=1;" vertex="1" parent="1">
          <mxGeometry x="-97.75000000000004" y="380" width="195" height="60" as="geometry" />
        </mxCell>
        <mxCell id="0AtwTI1klRxnO4YtGvaz-12" style="edgeStyle=orthogonalEdgeStyle;rounded=0;orthogonalLoop=1;jettySize=auto;html=1;entryX=0;entryY=0;entryDx=80;entryDy=65;entryPerimeter=0;fillColor=#e3c800;strokeColor=#B09500;flowAnimation=1;" edge="1" parent="1" source="w5LnOviL8SpPW8NTDGUm-11" target="w5LnOviL8SpPW8NTDGUm-24">
          <mxGeometry relative="1" as="geometry">
            <Array as="points">
              <mxPoint x="740" y="245" />
              <mxPoint x="740" y="755" />
            </Array>
          </mxGeometry>
        </mxCell>
        <mxCell id="0AtwTI1klRxnO4YtGvaz-14" style="edgeStyle=orthogonalEdgeStyle;rounded=0;orthogonalLoop=1;jettySize=auto;html=1;entryX=0.5;entryY=0;entryDx=0;entryDy=0;entryPerimeter=0;flowAnimation=1;fillColor=#6d8764;strokeColor=#3A5431;" edge="1" parent="1" source="w5LnOviL8SpPW8NTDGUm-53" target="w5LnOviL8SpPW8NTDGUm-24">
          <mxGeometry relative="1" as="geometry" />
        </mxCell>
        <mxCell id="0AtwTI1klRxnO4YtGvaz-15" style="edgeStyle=orthogonalEdgeStyle;rounded=0;orthogonalLoop=1;jettySize=auto;html=1;entryX=0.5;entryY=0;entryDx=0;entryDy=0;entryPerimeter=0;fillColor=#e51400;strokeColor=#B20000;flowAnimation=1;" edge="1" parent="1" source="w5LnOviL8SpPW8NTDGUm-7" target="w5LnOviL8SpPW8NTDGUm-65">
          <mxGeometry relative="1" as="geometry" />
        </mxCell>
        <mxCell id="0AtwTI1klRxnO4YtGvaz-16" style="edgeStyle=orthogonalEdgeStyle;rounded=0;orthogonalLoop=1;jettySize=auto;html=1;entryX=0.5;entryY=0;entryDx=0;entryDy=0;entryPerimeter=0;fillColor=#d80073;strokeColor=#A50040;flowAnimation=1;" edge="1" parent="1" source="0AtwTI1klRxnO4YtGvaz-1" target="w5LnOviL8SpPW8NTDGUm-23">
          <mxGeometry relative="1" as="geometry">
            <Array as="points">
              <mxPoint y="627" />
              <mxPoint y="627" />
            </Array>
          </mxGeometry>
        </mxCell>
        <mxCell id="0AtwTI1klRxnO4YtGvaz-17" style="edgeStyle=orthogonalEdgeStyle;rounded=0;orthogonalLoop=1;jettySize=auto;html=1;entryX=0.5;entryY=0;entryDx=0;entryDy=0;entryPerimeter=0;flowAnimation=1;fillColor=#1ba1e2;strokeColor=#006EAF;" edge="1" parent="1" source="w5LnOviL8SpPW8NTDGUm-6" target="w5LnOviL8SpPW8NTDGUm-2">
          <mxGeometry relative="1" as="geometry" />
        </mxCell>
        <mxCell id="0AtwTI1klRxnO4YtGvaz-18" style="edgeStyle=orthogonalEdgeStyle;rounded=0;orthogonalLoop=1;jettySize=auto;html=1;entryX=0.212;entryY=0.028;entryDx=0;entryDy=0;entryPerimeter=0;jumpStyle=arc;flowAnimation=1;fillColor=#6a00ff;strokeColor=#3700CC;" edge="1" parent="1" source="w5LnOviL8SpPW8NTDGUm-5" target="w5LnOviL8SpPW8NTDGUm-24">
          <mxGeometry relative="1" as="geometry">
            <Array as="points">
              <mxPoint x="-581" y="647" />
              <mxPoint x="549" y="647" />
            </Array>
          </mxGeometry>
        </mxCell>
        <mxCell id="0AtwTI1klRxnO4YtGvaz-19" style="edgeStyle=orthogonalEdgeStyle;rounded=0;orthogonalLoop=1;jettySize=auto;html=1;entryX=0;entryY=0;entryDx=80;entryDy=65;entryPerimeter=0;fillColor=#6a00ff;strokeColor=#3700CC;flowAnimation=1;" edge="1" parent="1" source="w5LnOviL8SpPW8NTDGUm-24" target="w5LnOviL8SpPW8NTDGUm-65">
          <mxGeometry relative="1" as="geometry">
            <Array as="points">
              <mxPoint x="480" y="772" />
              <mxPoint x="480" y="772" />
            </Array>
          </mxGeometry>
        </mxCell>
        <mxCell id="0AtwTI1klRxnO4YtGvaz-21" style="edgeStyle=orthogonalEdgeStyle;rounded=0;orthogonalLoop=1;jettySize=auto;html=1;entryX=0;entryY=0;entryDx=80;entryDy=65;entryPerimeter=0;flowAnimation=1;fillColor=#6a00ff;strokeColor=#3700CC;" edge="1" parent="1" source="w5LnOviL8SpPW8NTDGUm-65" target="w5LnOviL8SpPW8NTDGUm-23">
          <mxGeometry relative="1" as="geometry">
            <Array as="points">
              <mxPoint x="190" y="772" />
              <mxPoint x="190" y="772" />
            </Array>
          </mxGeometry>
        </mxCell>
        <mxCell id="0AtwTI1klRxnO4YtGvaz-22" style="edgeStyle=orthogonalEdgeStyle;rounded=0;orthogonalLoop=1;jettySize=auto;html=1;entryX=0;entryY=0;entryDx=80;entryDy=65;entryPerimeter=0;flowAnimation=1;fillColor=#6a00ff;strokeColor=#3700CC;" edge="1" parent="1" source="w5LnOviL8SpPW8NTDGUm-23" target="w5LnOviL8SpPW8NTDGUm-2">
          <mxGeometry relative="1" as="geometry">
            <Array as="points">
              <mxPoint x="-90" y="772" />
              <mxPoint x="-90" y="772" />
            </Array>
          </mxGeometry>
        </mxCell>
        <mxCell id="0AtwTI1klRxnO4YtGvaz-23" style="edgeStyle=orthogonalEdgeStyle;rounded=0;orthogonalLoop=1;jettySize=auto;html=1;entryX=0;entryY=0;entryDx=80;entryDy=65;entryPerimeter=0;fillColor=#6a00ff;strokeColor=#3700CC;flowAnimation=1;" edge="1" parent="1" source="w5LnOviL8SpPW8NTDGUm-2" target="w5LnOviL8SpPW8NTDGUm-3">
          <mxGeometry relative="1" as="geometry">
            <Array as="points">
              <mxPoint x="-380" y="772" />
              <mxPoint x="-380" y="772" />
            </Array>
          </mxGeometry>
        </mxCell>
      </root>
    </mxGraphModel>
  </diagram>
</mxfile>
